<svg xmlns="http://www.w3.org/2000/svg" xmlns:xlink="http://www.w3.org/1999/xlink" width="242" zoomAndPan="magnify" viewBox="0 0 181.5 181.499992" height="242" preserveAspectRatio="xMidYMid meet" version="1.0"><defs><clipPath id="440f64a115"><path d="M 0 0 L 181 0 L 181 181 L 0 181 Z M 0 0 " clip-rule="nonzero"/></clipPath><clipPath id="ce76933ad7"><path d="M 109 106.464844 L 141.257812 106.464844 L 141.257812 180.511719 L 109 180.511719 Z M 109 106.464844 " clip-rule="nonzero"/></clipPath><clipPath id="b796978643"><path d="M 36 155 L 62 155 L 62 160 L 36 160 Z M 36 155 " clip-rule="nonzero"/></clipPath><clipPath id="0528d19004"><path d="M 32.582031 107.527344 L 32.582031 177.808594 C 32.582031 179.460938 33.921875 180.800781 35.574219 180.800781 L 62.097656 180.800781 C 63.75 180.800781 65.089844 179.460938 65.089844 177.808594 L 65.089844 107.527344 C 65.089844 105.875 63.75 104.535156 62.097656 104.535156 L 35.574219 104.535156 C 33.921875 104.535156 32.582031 105.875 32.582031 107.527344 Z M 32.582031 107.527344 " clip-rule="nonzero"/></clipPath><clipPath id="ac1ba2bb6b"><path d="M 32.582031 160 L 64.742188 160 L 64.742188 180.828125 L 32.582031 180.828125 Z M 32.582031 160 " clip-rule="nonzero"/></clipPath><clipPath id="6d7c4cd914"><path d="M 32.582031 107.527344 L 32.582031 177.808594 C 32.582031 179.460938 33.921875 180.800781 35.574219 180.800781 L 62.097656 180.800781 C 63.75 180.800781 65.089844 179.460938 65.089844 177.808594 L 65.089844 107.527344 C 65.089844 105.875 63.75 104.535156 62.097656 104.535156 L 35.574219 104.535156 C 33.921875 104.535156 32.582031 105.875 32.582031 107.527344 Z M 32.582031 107.527344 " clip-rule="nonzero"/></clipPath><clipPath id="93f75a38e4"><path d="M 42 152 L 55 152 L 55 156 L 42 156 Z M 42 152 " clip-rule="nonzero"/></clipPath><clipPath id="4aea24a154"><path d="M 32.582031 107.527344 L 32.582031 177.808594 C 32.582031 179.460938 33.921875 180.800781 35.574219 180.800781 L 62.097656 180.800781 C 63.75 180.800781 65.089844 179.460938 65.089844 177.808594 L 65.089844 107.527344 C 65.089844 105.875 63.75 104.535156 62.097656 104.535156 L 35.574219 104.535156 C 33.921875 104.535156 32.582031 105.875 32.582031 107.527344 Z M 32.582031 107.527344 " clip-rule="nonzero"/></clipPath><clipPath id="4d74307a98"><path d="M 46 104.535156 L 52 104.535156 L 52 153 L 46 153 Z M 46 104.535156 " clip-rule="nonzero"/></clipPath><clipPath id="acc56b2489"><path d="M 32.582031 107.527344 L 32.582031 177.808594 C 32.582031 179.460938 33.921875 180.800781 35.574219 180.800781 L 62.097656 180.800781 C 63.75 180.800781 65.089844 179.460938 65.089844 177.808594 L 65.089844 107.527344 C 65.089844 105.875 63.75 104.535156 62.097656 104.535156 L 35.574219 104.535156 C 33.921875 104.535156 32.582031 105.875 32.582031 107.527344 Z M 32.582031 107.527344 " clip-rule="nonzero"/></clipPath><clipPath id="8946c81c9b"><path d="M 118.441406 164.253906 L 178.828125 164.253906 L 178.828125 180.796875 L 118.441406 180.796875 Z M 118.441406 164.253906 " clip-rule="nonzero"/></clipPath><clipPath id="148d498d3f"><path d="M 81.585938 134.707031 L 97.671875 134.707031 L 97.671875 180.511719 L 81.585938 180.511719 Z M 81.585938 134.707031 " clip-rule="nonzero"/></clipPath><clipPath id="58c05db841"><path d="M 60.851562 76.574219 L 118.445312 76.574219 L 118.445312 100.988281 L 60.851562 100.988281 Z M 60.851562 76.574219 " clip-rule="nonzero"/></clipPath></defs><g clip-path="url(#440f64a115)"><path fill="#facc01" d="M 172.445312 213.882812 L 8.554688 213.882812 C 8.285156 213.882812 8.015625 213.867188 7.75 213.839844 C 7.484375 213.816406 7.21875 213.777344 6.957031 213.722656 C 6.691406 213.671875 6.429688 213.605469 6.175781 213.527344 C 5.917969 213.453125 5.664062 213.359375 5.417969 213.257812 C 5.167969 213.15625 4.925781 213.039062 4.691406 212.914062 C 4.453125 212.789062 4.222656 212.648438 4 212.5 C 3.777344 212.351562 3.5625 212.191406 3.355469 212.019531 C 3.148438 211.851562 2.949219 211.671875 2.757812 211.480469 C 2.570312 211.289062 2.390625 211.09375 2.21875 210.886719 C 2.050781 210.679688 1.890625 210.464844 1.742188 210.238281 C 1.589844 210.015625 1.453125 209.785156 1.328125 209.550781 C 1.199219 209.3125 1.085938 209.070312 0.980469 208.824219 C 0.878906 208.574219 0.789062 208.324219 0.710938 208.066406 C 0.632812 207.808594 0.570312 207.546875 0.515625 207.285156 C 0.464844 207.023438 0.425781 206.757812 0.398438 206.492188 C 0.371094 206.222656 0.359375 205.953125 0.359375 205.6875 L 0.359375 90.960938 C 0.359375 89.875 0.566406 88.828125 0.984375 87.824219 C 1.398438 86.820312 1.992188 85.9375 2.761719 85.167969 L 84.707031 3.21875 C 84.898438 3.03125 85.09375 2.851562 85.300781 2.679688 C 85.511719 2.507812 85.726562 2.351562 85.949219 2.203125 C 86.171875 2.054688 86.402344 1.914062 86.640625 1.789062 C 86.875 1.660156 87.117188 1.546875 87.363281 1.445312 C 87.613281 1.34375 87.863281 1.25 88.125 1.175781 C 88.378906 1.09375 88.640625 1.03125 88.902344 0.980469 C 89.164062 0.925781 89.429688 0.886719 89.699219 0.859375 C 89.964844 0.835938 90.234375 0.820312 90.5 0.820312 C 90.769531 0.820312 91.035156 0.835938 91.304688 0.859375 C 91.570312 0.886719 91.835938 0.925781 92.097656 0.980469 C 92.363281 1.03125 92.621094 1.09375 92.878906 1.175781 C 93.136719 1.25 93.386719 1.34375 93.636719 1.445312 C 93.882812 1.546875 94.125 1.660156 94.363281 1.789062 C 94.601562 1.914062 94.828125 2.054688 95.050781 2.203125 C 95.277344 2.351562 95.492188 2.507812 95.699219 2.679688 C 95.90625 2.851562 96.105469 3.03125 96.292969 3.21875 L 178.242188 85.167969 C 179.011719 85.9375 179.601562 86.820312 180.015625 87.824219 C 180.433594 88.828125 180.640625 89.875 180.644531 90.960938 L 180.644531 205.6875 C 180.644531 205.953125 180.628906 206.222656 180.605469 206.492188 C 180.578125 206.757812 180.539062 207.023438 180.484375 207.285156 C 180.433594 207.546875 180.367188 207.808594 180.289062 208.066406 C 180.210938 208.324219 180.121094 208.574219 180.019531 208.824219 C 179.914062 209.070312 179.800781 209.3125 179.675781 209.550781 C 179.546875 209.785156 179.410156 210.015625 179.261719 210.238281 C 179.113281 210.464844 178.953125 210.679688 178.78125 210.886719 C 178.613281 211.09375 178.429688 211.289062 178.242188 211.480469 C 178.050781 211.671875 177.855469 211.851562 177.644531 212.019531 C 177.4375 212.191406 177.222656 212.351562 177 212.5 C 176.777344 212.648438 176.546875 212.789062 176.308594 212.914062 C 176.074219 213.039062 175.832031 213.15625 175.582031 213.257812 C 175.335938 213.359375 175.082031 213.453125 174.828125 213.527344 C 174.570312 213.605469 174.308594 213.671875 174.046875 213.722656 C 173.785156 213.777344 173.519531 213.816406 173.25 213.839844 C 172.984375 213.867188 172.714844 213.882812 172.445312 213.882812 Z M 16.75 197.492188 L 164.253906 197.492188 L 164.253906 94.355469 L 90.5 20.601562 L 16.75 94.355469 Z M 16.75 197.492188 " fill-opacity="1" fill-rule="nonzero"/></g><g clip-path="url(#ce76933ad7)"><path fill="#facc01" d="M 141.261719 120.585938 C 141.261719 114.46875 137.925781 109.132812 132.921875 106.464844 L 132.921875 120.363281 C 132.921875 121.917969 131.589844 123.253906 130.03125 123.253906 L 120.25 123.253906 C 118.695312 123.253906 117.359375 121.917969 117.359375 120.363281 L 117.359375 106.464844 C 112.355469 109.246094 109.023438 114.582031 109.023438 120.585938 C 109.023438 127.03125 112.800781 132.589844 118.359375 135.148438 L 118.359375 188.398438 C 118.359375 189.953125 119.695312 191.289062 121.25 191.289062 L 129.03125 191.289062 C 130.589844 191.289062 131.921875 189.953125 131.921875 188.398438 L 131.921875 135.148438 C 137.480469 132.589844 141.261719 127.03125 141.261719 120.585938 Z M 141.261719 120.585938 " fill-opacity="1" fill-rule="nonzero"/></g><g clip-path="url(#b796978643)"><g clip-path="url(#0528d19004)"><path fill="#2b2921" d="M 60.40625 159.175781 L 37.257812 159.175781 C 36.679688 159.175781 36.207031 158.703125 36.207031 158.125 L 36.207031 156.320312 C 36.207031 155.746094 36.679688 155.273438 37.257812 155.273438 L 60.40625 155.273438 C 60.980469 155.273438 61.453125 155.746094 61.453125 156.320312 L 61.453125 158.125 C 61.453125 158.703125 60.980469 159.175781 60.40625 159.175781 " fill-opacity="1" fill-rule="nonzero"/></g></g><g clip-path="url(#ac1ba2bb6b)"><g clip-path="url(#6d7c4cd914)"><path fill="#2b2921" d="M 34.992188 180.753906 L 36.804688 171.089844 L 36.46875 180.757812 L 39.054688 180.757812 L 40.300781 169.011719 L 40.527344 180.757812 L 43.542969 180.757812 L 44.589844 172.070312 L 45.011719 180.757812 L 47.347656 180.757812 L 48.167969 168.046875 L 48.820312 180.757812 L 51.929688 180.757812 L 52.449219 170.03125 L 53.402344 180.757812 L 55.734375 180.757812 L 56.097656 172.792969 L 57.199219 180.757812 L 60.433594 180.757812 L 60.523438 172.070312 L 61.90625 180.757812 L 65.085938 180.757812 L 61.019531 160.636719 L 36.640625 160.636719 L 32.578125 180.757812 L 35.039062 180.757812 L 34.992188 180.753906 " fill-opacity="1" fill-rule="nonzero"/></g></g><g clip-path="url(#93f75a38e4)"><g clip-path="url(#4aea24a154)"><path fill="#2b2921" d="M 54.699219 155.273438 L 42.960938 155.273438 L 42.960938 152.082031 L 54.699219 152.082031 L 54.699219 155.273438 " fill-opacity="1" fill-rule="nonzero"/></g></g><g clip-path="url(#4d74307a98)"><g clip-path="url(#acc56b2489)"><path fill="#2b2921" d="M 51.109375 152.082031 L 46.554688 152.082031 L 46.554688 106.859375 C 46.554688 105.601562 47.574219 104.582031 48.832031 104.582031 C 50.089844 104.582031 51.109375 105.601562 51.109375 106.859375 L 51.109375 152.082031 " fill-opacity="1" fill-rule="nonzero"/></g></g><g clip-path="url(#8946c81c9b)"><path fill="#facc01" d="M 178.828125 164.253906 L 178.828125 180.796875 L 118.472656 180.796875 L 118.472656 164.253906 Z M 178.828125 164.253906 " fill-opacity="1" fill-rule="nonzero"/></g><path fill="#2b2921" d="M 94.640625 132.226562 L 84.65625 132.226562 L 84.65625 103.492188 L 94.640625 103.492188 L 94.640625 132.226562 " fill-opacity="1" fill-rule="nonzero"/><g clip-path="url(#148d498d3f)"><path fill="#2b2921" d="M 95.9375 134.835938 L 83.359375 134.835938 C 82.453125 134.835938 81.71875 135.570312 81.71875 136.476562 L 81.71875 179.136719 C 81.71875 180.042969 82.453125 180.777344 83.359375 180.777344 L 95.9375 180.777344 C 96.84375 180.777344 97.578125 180.042969 97.578125 179.136719 L 97.578125 136.476562 C 97.578125 135.570312 96.84375 134.835938 95.9375 134.835938 " fill-opacity="1" fill-rule="nonzero"/></g><g clip-path="url(#58c05db841)"><path fill="#2b2921" d="M 68.308594 78.859375 C 66.421875 78.753906 65.40625 78.804688 63.585938 78.839844 C 62.4375 78.859375 61.191406 79.75 61.082031 80.898438 C 60.707031 84.757812 60.875 88.375 61.019531 92.222656 C 61.058594 93.375 62.992188 94.308594 64.140625 94.339844 C 65.632812 94.378906 66.941406 94.445312 68.585938 94.445312 C 73.03125 91.113281 80.09375 92.328125 82.800781 100.800781 C 86.488281 100.78125 92.683594 100.839844 95.804688 100.800781 C 97.160156 92.988281 99.210938 89.617188 101.949219 88.070312 C 106.222656 85.664062 113.722656 89.414062 118.445312 95.246094 C 117.054688 81.910156 104.972656 77.050781 96.5 76.84375 C 90.617188 76.699219 85.53125 76.355469 80.667969 76.773438 C 78.585938 79.414062 74.28125 82.816406 68.308594 78.859375 " fill-opacity="1" fill-rule="nonzero"/></g></svg>